<svg width="15" height="15" viewBox="0 0 15 15" fill="none" xmlns="http://www.w3.org/2000/svg">
<mask id="mask0_0_1877" style="mask-type:luminance" maskUnits="userSpaceOnUse" x="0" y="0" width="15" height="15">
<rect width="15" height="15" fill="white"/>
</mask>
<g mask="url(#mask0_0_1877)">
<path fill-rule="evenodd" clip-rule="evenodd" d="M7.5 6.25C6.8125 6.25 6.25 6.8125 6.25 7.5C6.25 8.1875 6.8125 8.75 7.5 8.75C8.1875 8.75 8.75 8.1875 8.75 7.5C8.75 6.8125 8.1875 6.25 7.5 6.25ZM7.5 2.5C6.8125 2.5 6.25 3.0625 6.25 3.75C6.25 4.4375 6.8125 5 7.5 5C8.1875 5 8.75 4.4375 8.75 3.75C8.75 3.0625 8.1875 2.5 7.5 2.5ZM7.5 10C6.8125 10 6.25 10.5625 6.25 11.25C6.25 11.9375 6.8125 12.5 7.5 12.5C8.1875 12.5 8.75 11.9375 8.75 11.25C8.75 10.5625 8.1875 10 7.5 10Z" fill="#797C8C"/>
</g>
</svg>
