<svg width="22" height="22" viewBox="0 0 22 22" fill="none" xmlns="http://www.w3.org/2000/svg">
<mask id="mask0_0_1527" style="mask-type:luminance" maskUnits="userSpaceOnUse" x="0" y="0" width="22" height="22">
<rect width="22" height="22" fill="white"/>
</mask>
<g mask="url(#mask0_0_1527)">
<path fill-rule="evenodd" clip-rule="evenodd" d="M9.99984 9.16675C8.9915 9.16675 8.1665 9.99175 8.1665 11.0001C8.1665 12.0084 8.9915 12.8334 9.99984 12.8334C11.0082 12.8334 11.8332 12.0084 11.8332 11.0001C11.8332 9.99175 11.0082 9.16675 9.99984 9.16675ZM15.4998 9.16675C14.4915 9.16675 13.6665 9.99175 13.6665 11.0001C13.6665 12.0084 14.4915 12.8334 15.4998 12.8334C16.5082 12.8334 17.3332 12.0084 17.3332 11.0001C17.3332 9.99175 16.5082 9.16675 15.4998 9.16675ZM4.49984 9.16675C3.4915 9.16675 2.6665 9.99175 2.6665 11.0001C2.6665 12.0084 3.4915 12.8334 4.49984 12.8334C5.50817 12.8334 6.33317 12.0084 6.33317 11.0001C6.33317 9.99175 5.50817 9.16675 4.49984 9.16675Z" fill="#797C8C"/>
</g>
</svg>
