<svg width="22" height="22" viewBox="0 0 22 22" fill="none" xmlns="http://www.w3.org/2000/svg">
<mask id="mask0_106_1736" style="mask-type:luminance" maskUnits="userSpaceOnUse" x="0" y="0" width="22" height="22">
<rect width="22" height="22" fill="white"/>
</mask>
<g mask="url(#mask0_106_1736)">
<path fill-rule="evenodd" clip-rule="evenodd" d="M10.9998 9.16667C9.9915 9.16667 9.1665 9.99167 9.1665 11C9.1665 12.0083 9.9915 12.8333 10.9998 12.8333C12.0082 12.8333 12.8332 12.0083 12.8332 11C12.8332 9.99167 12.0082 9.16667 10.9998 9.16667ZM10.9998 3.66667C9.9915 3.66667 9.1665 4.49167 9.1665 5.5C9.1665 6.50833 9.9915 7.33333 10.9998 7.33333C12.0082 7.33333 12.8332 6.50833 12.8332 5.5C12.8332 4.49167 12.0082 3.66667 10.9998 3.66667ZM10.9998 14.6667C9.9915 14.6667 9.1665 15.4917 9.1665 16.5C9.1665 17.5083 9.9915 18.3333 10.9998 18.3333C12.0082 18.3333 12.8332 17.5083 12.8332 16.5C12.8332 15.4917 12.0082 14.6667 10.9998 14.6667Z" fill="#797C8C"/>
</g>
</svg>
