<svg width="22" height="22" viewBox="0 0 22 22" fill="none" xmlns="http://www.w3.org/2000/svg">
<mask id="mask0_0_1524" style="mask-type:luminance" maskUnits="userSpaceOnUse" x="0" y="0" width="22" height="22">
<rect width="22" height="22" fill="white"/>
</mask>
<g mask="url(#mask0_0_1524)">
<path fill-rule="evenodd" clip-rule="evenodd" d="M14.6668 11V5.5C14.6668 3.46775 13.0306 1.81409 11.0194 1.81409C10.9562 1.81409 10.8911 1.82234 10.8278 1.837C8.88541 1.92867 7.3335 3.53559 7.3335 5.5V11C7.3335 13.0222 8.978 14.6667 11.0002 14.6667C13.0223 14.6667 14.6668 13.0222 14.6668 11ZM9.16687 11V5.49998C9.16687 4.48889 9.98912 3.66664 11.0002 3.66664C11.0506 3.66664 11.1001 3.66206 11.1496 3.65289C12.0892 3.72164 12.8335 4.52373 12.8335 5.49998V11C12.8335 12.0111 12.0113 12.8333 11.0002 12.8333C9.98912 12.8333 9.16687 12.0111 9.16687 11Z" fill="#797C8C"/>
<path fill-rule="evenodd" clip-rule="evenodd" d="M5.49984 11H3.6665C3.6665 14.7327 6.47242 17.8163 10.0832 18.2701V20.1667H11.9165V18.2701C15.5273 17.8163 18.3332 14.7336 18.3332 11H16.4998C16.4998 14.0333 14.0331 16.5 10.9998 16.5C7.96659 16.5 5.49984 14.0333 5.49984 11Z" fill="#797C8C"/>
</g>
</svg>
