<svg width="22" height="22" viewBox="0 0 22 22" fill="none" xmlns="http://www.w3.org/2000/svg">
<mask id="mask0_0_1526" style="mask-type:luminance" maskUnits="userSpaceOnUse" x="0" y="0" width="22" height="22">
<rect width="22" height="22" fill="white"/>
</mask>
<g mask="url(#mask0_0_1526)">
<path fill-rule="evenodd" clip-rule="evenodd" d="M11.0002 1.83325C5.94566 1.83325 1.8335 5.94542 1.8335 10.9999C1.8335 16.0544 5.94566 20.1666 11.0002 20.1666C16.0547 20.1666 20.1668 16.0544 20.1668 10.9999C20.1668 5.94542 16.0547 1.83325 11.0002 1.83325ZM11.0002 18.3332C6.95676 18.3332 3.66684 15.0433 3.66684 10.9999C3.66684 6.95648 6.95676 3.66656 11.0002 3.66656C15.0436 3.66656 18.3335 6.95648 18.3335 10.9999C18.3335 15.0433 15.0436 18.3332 11.0002 18.3332Z" fill="#797C8C"/>
<path fill-rule="evenodd" clip-rule="evenodd" d="M13.5931 13.5923C13.4235 13.761 13.2411 13.9123 13.0504 14.0406C12.8515 14.1744 12.6425 14.2881 12.4271 14.3788C12.2034 14.4733 11.9724 14.5448 11.7405 14.5924C11.2537 14.6914 10.7441 14.6914 10.2591 14.5924C10.0263 14.5448 9.79531 14.4733 9.57164 14.3788C9.35714 14.2881 9.14723 14.1744 8.94923 14.0406C8.75764 13.9113 8.57523 13.761 8.40564 13.5923C8.23973 13.4264 8.08848 13.244 7.95831 13.0497L6.43848 14.0754C6.63556 14.3669 6.86198 14.641 7.11131 14.8903C7.36156 15.1406 7.63564 15.367 7.92439 15.5604C8.22048 15.7603 8.53489 15.9308 8.85939 16.0673C9.19398 16.2085 9.54139 16.3167 9.89339 16.3882C10.2564 16.4624 10.6295 16.5 10.9998 16.5C11.3701 16.5 11.7432 16.4624 12.1071 16.3882C12.4582 16.3167 12.8056 16.2085 13.1402 16.0673C13.4647 15.9308 13.7782 15.7603 14.0761 15.5604C14.3631 15.3661 14.6371 15.1406 14.8883 14.8903C15.1376 14.6419 15.365 14.3669 15.5611 14.0754L14.0413 13.0497C13.9102 13.244 13.759 13.4264 13.5931 13.5923Z" fill="#797C8C"/>
<circle cx="7.7915" cy="9.625" r="1.375" fill="#797C8C"/>
<circle cx="14.2021" cy="9.61858" r="1.36858" fill="#797C8C"/>
</g>
</svg>
