<svg width="22" height="22" viewBox="0 0 22 22" fill="none" xmlns="http://www.w3.org/2000/svg">
<mask id="mask0_106_1759" style="mask-type:luminance" maskUnits="userSpaceOnUse" x="0" y="0" width="22" height="22">
<rect width="22" height="22" fill="white"/>
</mask>
<g mask="url(#mask0_106_1759)">
<path fill-rule="evenodd" clip-rule="evenodd" d="M9.16683 16.5C10.859 16.5 12.4146 15.9179 13.6557 14.9527L17.6854 18.9823L18.9816 17.6862L14.9519 13.6565C15.9181 12.4144 16.5002 10.8588 16.5002 9.16667C16.5002 5.12325 13.2102 1.83333 9.16683 1.83333C5.12341 1.83333 1.8335 5.12325 1.8335 9.16667C1.8335 13.2101 5.12341 16.5 9.16683 16.5ZM9.16687 3.66666C12.2001 3.66666 14.6669 6.13341 14.6669 9.16666C14.6669 12.1999 12.2001 14.6667 9.16687 14.6667C6.13362 14.6667 3.66687 12.1999 3.66687 9.16666C3.66687 6.13341 6.13362 3.66666 9.16687 3.66666Z" fill="#797C8C"/>
</g>
</svg>
