<svg width="26" height="24" viewBox="0 0 26 24" fill="none" xmlns="http://www.w3.org/2000/svg">
<rect width="26" height="24" rx="3" fill="#343A40" fill-opacity="0.698039"/>
<mask id="mask0_0_467" style="mask-type:luminance" maskUnits="userSpaceOnUse" x="4" y="4" width="18" height="18">
<rect x="4" y="4" width="18" height="18" fill="white"/>
</mask>
<g mask="url(#mask0_0_467)">
<path fill-rule="evenodd" clip-rule="evenodd" d="M13 11.5C12.175 11.5 11.5 12.175 11.5 13C11.5 13.825 12.175 14.5 13 14.5C13.825 14.5 14.5 13.825 14.5 13C14.5 12.175 13.825 11.5 13 11.5ZM17.5 11.5C16.675 11.5 16 12.175 16 13C16 13.825 16.675 14.5 17.5 14.5C18.325 14.5 19 13.825 19 13C19 12.175 18.325 11.5 17.5 11.5ZM8.5 11.5C7.675 11.5 7 12.175 7 13C7 13.825 7.675 14.5 8.5 14.5C9.325 14.5 10 13.825 10 13C10 12.175 9.325 11.5 8.5 11.5Z" fill="white"/>
</g>
</svg>
