<svg width="15" height="15" viewBox="0 0 15 15" fill="none" xmlns="http://www.w3.org/2000/svg">
<path fill-rule="evenodd" clip-rule="evenodd" d="M0.738281 7.5C1.32578 4.3 4.13016 1.875 7.50016 1.875C10.8702 1.875 13.6739 4.3 14.262 7.5C13.6745 10.7 10.8702 13.125 7.50016 13.125C4.13016 13.125 1.32641 10.7 0.738281 7.5H0.738281ZM7.50024 10.625C9.22612 10.625 10.6252 9.22589 10.6252 7.50001C10.6252 5.77412 9.22614 4.37501 7.50025 4.375C5.77437 4.375 4.37525 5.7741 4.37524 7.49998C4.37524 9.22587 5.77433 10.625 7.50022 10.625H7.50024ZM7.50024 9.375C6.83037 9.375 6.21138 9.01763 5.87645 8.4375C5.54151 7.85737 5.54151 7.14263 5.87645 6.5625C6.21138 5.98237 6.83037 5.625 7.50024 5.625C8.17012 5.625 8.78911 5.98237 9.12404 6.5625C9.45898 7.14263 9.45898 7.85737 9.12404 8.4375C8.78911 9.01763 8.17012 9.375 7.50024 9.375Z" fill="#797C8C"/>
</svg>
