<svg width="22" height="22" viewBox="0 0 22 22" fill="none" xmlns="http://www.w3.org/2000/svg">
<mask id="mask0_0_1708" style="mask-type:luminance" maskUnits="userSpaceOnUse" x="0" y="0" width="22" height="22">
<rect width="22" height="22" fill="white"/>
</mask>
<g mask="url(#mask0_0_1708)">
<path fill-rule="evenodd" clip-rule="evenodd" d="M18.3335 10.0824H20.1669C20.1669 5.37991 16.6166 1.83333 11.9077 1.83333V3.66666C15.6312 3.66666 18.3335 6.36441 18.3335 10.0824Z" fill="#4EAC6D"/>
<path fill-rule="evenodd" clip-rule="evenodd" d="M11.9169 7.33333C13.8447 7.33333 14.6669 8.15558 14.6669 10.0833H16.5003C16.5003 7.12708 14.8732 5.5 11.9169 5.5V7.33333ZM15.0538 12.3228C14.688 11.99 14.1233 12.0074 13.7787 12.3622L11.5851 14.6181C11.0571 14.5173 9.99559 14.1863 8.90293 13.0964C7.81026 12.0028 7.47934 10.9386 7.38126 10.4143L9.63534 8.21975C9.99101 7.87509 10.0075 7.31134 9.67476 6.94467L6.28768 3.22025C5.95493 2.85267 5.38934 2.81784 5.01259 3.1405L3.02343 4.84642C2.86484 5.00592 2.77043 5.21675 2.75759 5.44134C2.74384 5.6705 2.48168 11.099 6.69101 15.3102C10.3632 18.9814 14.963 19.25 16.2298 19.25C16.415 19.25 16.5287 19.2445 16.5589 19.2427C16.7835 19.2298 16.9943 19.1354 17.1529 18.9759L18.8579 16.9858C19.1815 16.6091 19.1448 16.0444 18.7791 15.7108L15.0538 12.3228Z" fill="#4EAC6D"/>
</g>
</svg>
