<svg width="15" height="15" viewBox="0 0 15 15" fill="none" xmlns="http://www.w3.org/2000/svg">
<mask id="mask0_0_2237" style="mask-type:luminance" maskUnits="userSpaceOnUse" x="0" y="0" width="15" height="15">
<rect width="15" height="15" fill="white"/>
</mask>
<g mask="url(#mask0_0_2237)">
<path fill-rule="evenodd" clip-rule="evenodd" d="M7.5 1.25C5.77688 1.25 4.375 2.65188 4.375 4.375C4.375 6.09813 5.77688 7.5 7.5 7.5C9.22313 7.5 10.625 6.09813 10.625 4.375C10.625 2.65188 9.22313 1.25 7.5 1.25ZM7.5 6.25C6.46625 6.25 5.625 5.40875 5.625 4.375C5.625 3.34125 6.46625 2.5 7.5 2.5C8.53375 2.5 9.375 3.34125 9.375 4.375C9.375 5.40875 8.53375 6.25 7.5 6.25ZM13.125 13.125V12.5C13.125 10.0881 11.1619 8.125 8.75 8.125H6.25C3.8375 8.125 1.875 10.0881 1.875 12.5V13.125H3.125V12.5C3.125 10.7769 4.52688 9.375 6.25 9.375H8.75C10.4731 9.375 11.875 10.7769 11.875 12.5V13.125H13.125Z" fill="#797C8C"/>
</g>
</svg>
