<svg width="14" height="14" viewBox="0 0 14 14" fill="none" xmlns="http://www.w3.org/2000/svg">
<mask id="mask0_0_1298" style="mask-type:luminance" maskUnits="userSpaceOnUse" x="0" y="0" width="14" height="14">
<rect width="14" height="14" fill="white"/>
</mask>
<g mask="url(#mask0_0_1298)">
<path fill-rule="evenodd" clip-rule="evenodd" d="M6.99992 1.16675C5.39167 1.16675 4.08325 2.47516 4.08325 4.08341V5.83341H3.49992C2.85592 5.83341 2.33325 6.35608 2.33325 7.00008V11.6667C2.33325 12.3107 2.85592 12.8334 3.49992 12.8334H4.66659H6.41658H7.58325H8.74992H10.4999C11.1439 12.8334 11.6666 12.3107 11.6666 11.6667V7.00008C11.6666 6.35608 11.1439 5.83341 10.4999 5.83341H9.91658V4.08341C9.91658 2.47516 8.60817 1.16675 6.99992 1.16675ZM5.24992 4.08344C5.24992 3.1186 6.03508 2.33344 6.99992 2.33344C7.96475 2.33344 8.74992 3.1186 8.74992 4.08344V5.83344H5.24992V4.08344ZM7.58325 10.3385V11.6668H6.41658V10.3385C5.9925 10.0923 5.73467 9.59301 5.86883 9.04118C5.9715 8.62118 6.32383 8.28168 6.74733 8.19359C7.50217 8.03493 8.16658 8.60601 8.16658 9.33343C8.16658 9.76451 7.93092 10.1367 7.58325 10.3385Z" fill="#797C8C"/>
</g>
</svg>
