<svg width="14" height="14" viewBox="0 0 14 14" fill="none" xmlns="http://www.w3.org/2000/svg">
<mask id="mask0_0_1280" style="mask-type:luminance" maskUnits="userSpaceOnUse" x="0" y="0" width="14" height="14">
<rect width="14" height="14" fill="white"/>
</mask>
<g mask="url(#mask0_0_1280)">
<path fill-rule="evenodd" clip-rule="evenodd" d="M7.00008 1.16675C3.78358 1.16675 1.16675 3.78358 1.16675 7.00008C1.16675 10.2166 3.78358 12.8334 7.00008 12.8334C10.2166 12.8334 12.8334 10.2166 12.8334 7.00008C12.8334 3.78358 10.2166 1.16675 7.00008 1.16675ZM7.58341 10.5001H6.41675V9.33344H7.58341V10.5001ZM8.15275 7.65048C8.03841 7.74264 7.92816 7.83073 7.84066 7.91823C7.60266 8.15564 7.584 8.37148 7.58341 8.38081V8.45839H6.41675V8.36098C6.41675 8.29214 6.43366 7.67439 7.01525 7.09281C7.129 6.97906 7.27016 6.86356 7.41833 6.74339C7.8465 6.39631 8.12766 6.14314 8.12766 5.79431C8.12825 5.17248 7.62191 4.66673 7.00008 4.66673C6.37825 4.66673 5.87191 5.17248 5.87191 5.79489H4.70525C4.70525 4.52964 5.73483 3.50006 7.00008 3.50006C8.26533 3.50006 9.29491 4.52964 9.29491 5.79489C9.29491 6.72648 8.60716 7.28239 8.15275 7.65048Z" fill="#797C8C"/>
</g>
</svg>
