<svg width="14" height="14" viewBox="0 0 14 14" fill="none" xmlns="http://www.w3.org/2000/svg">
<mask id="mask0_0_1289" style="mask-type:luminance" maskUnits="userSpaceOnUse" x="0" y="0" width="14" height="14">
<rect width="14" height="14" fill="white"/>
</mask>
<g mask="url(#mask0_0_1289)">
<path fill-rule="evenodd" clip-rule="evenodd" d="M6.70126 12.6899C6.87276 12.7815 7.08801 12.7809 7.25951 12.6893C11.9332 10.1786 12.2651 5.27339 12.261 3.87864C12.2604 3.64881 12.1239 3.44464 11.9133 3.35189L7.21751 1.27173C7.06643 1.20523 6.89434 1.20523 6.74326 1.27231L2.08009 3.35248C1.87301 3.44523 1.73768 3.64589 1.73476 3.87281C1.71493 5.26056 1.99434 10.1763 6.70126 12.6899ZM5.05976 6.00431L6.39734 7.3419L8.90159 4.83765L9.72642 5.66248L6.39734 8.99156L4.23492 6.82915L5.05976 6.00431Z" fill="#797C8C"/>
</g>
</svg>
