<svg width="29" height="29" viewBox="0 0 29 29" fill="none" xmlns="http://www.w3.org/2000/svg">
<circle cx="14.5" cy="14.5" r="14.5" fill="#4EAC6D" fill-opacity="0.2"/>
<mask id="mask0_0_1509" style="mask-type:luminance" maskUnits="userSpaceOnUse" x="7" y="7" width="15" height="15">
<rect x="7" y="7" width="15" height="15" fill="white"/>
</mask>
<g mask="url(#mask0_0_1509)">
<path fill-rule="evenodd" clip-rule="evenodd" d="M14.5 20.75L15.125 19.5V17.625H18.25C18.5956 17.625 18.875 17.3456 18.875 17V16.0087C18.875 15.68 18.7412 15.3575 18.5087 15.125L17.625 14.2413V12C17.9706 12 18.25 11.7206 18.25 11.375V9.5C18.25 8.81062 17.6894 8.25 17 8.25H12C11.3106 8.25 10.75 8.81063 10.75 9.5V11.375C10.75 11.7206 11.03 12 11.375 12V14.2413L10.4912 15.125C10.2581 15.3575 10.125 15.68 10.125 16.0087V17C10.125 17.3456 10.405 17.625 10.75 17.625H13.875V19.5L14.5 20.75ZM12 9.5H17V10.75H12V9.5ZM11.375 16.0087L12.4419 14.9419C12.5594 14.825 12.625 14.6663 12.625 14.5V12H16.375V14.5C16.375 14.6663 16.4406 14.825 16.5581 14.9419L17.625 16.0087V16.375H11.375V16.0087Z" fill="#4EAC6D"/>
</g>
</svg>
