<svg width="12" height="12" viewBox="0 0 12 12" fill="none" xmlns="http://www.w3.org/2000/svg">
<mask id="mask0_0_1303" style="mask-type:luminance" maskUnits="userSpaceOnUse" x="0" y="0" width="12" height="12">
<rect width="12" height="12" fill="white"/>
</mask>
<g mask="url(#mask0_0_1303)">
<path fill-rule="evenodd" clip-rule="evenodd" d="M1.23468 3.48444C1.30504 3.41391 1.40056 3.37427 1.50018 3.37427C1.5998 3.37427 1.69533 3.41391 1.76568 3.48444L6.00018 7.71969L10.2347 3.48444C10.3813 3.33782 10.619 3.3378 10.7656 3.48439C10.9123 3.63098 10.9123 3.86868 10.7658 4.01535L6.26568 8.51544C6.19533 8.58597 6.0998 8.62561 6.00018 8.62561C5.90056 8.62561 5.80504 8.58597 5.73468 8.51544L1.23468 4.01544C1.16415 3.94508 1.12451 3.84956 1.12451 3.74994C1.12451 3.65032 1.16415 3.55479 1.23468 3.48444H1.23468Z" fill="#495057"/>
</g>
</svg>
