<svg width="29" height="29" viewBox="0 0 29 29" fill="none" xmlns="http://www.w3.org/2000/svg">
<rect width="29" height="29" rx="14" fill="#4EAC6D" fill-opacity="0.2"/>
<mask id="mask0_0_2219" style="mask-type:luminance" maskUnits="userSpaceOnUse" x="7" y="7" width="15" height="15">
<rect x="7" y="7" width="15" height="15" fill="white"/>
</mask>
<g mask="url(#mask0_0_2219)">
<path fill-rule="evenodd" clip-rule="evenodd" d="M19.4394 12.3663C19.4087 12.3 19.3706 12.2369 19.3169 12.1831L15.5669 8.43313C15.5131 8.37938 15.45 8.34125 15.3838 8.31063C15.365 8.30188 15.345 8.29688 15.325 8.29C15.2725 8.2725 15.2188 8.26125 15.1631 8.25813C15.15 8.25687 15.1381 8.25 15.125 8.25H10.75C10.0606 8.25 9.5 8.81063 9.5 9.5V19.5C9.5 20.1894 10.0606 20.75 10.75 20.75H18.25C18.9394 20.75 19.5 20.1894 19.5 19.5V12.625C19.5 12.6119 19.4931 12.6 19.4919 12.5862C19.4888 12.5306 19.4781 12.4769 19.46 12.4244C19.4538 12.4044 19.4481 12.385 19.4394 12.3663ZM17.3663 12H15.75V10.3837L17.3663 12ZM10.75 19.5V9.5H14.5V12.625C14.5 12.9706 14.7794 13.25 15.125 13.25H18.25L18.2513 19.5H10.75Z" fill="#4EAC6D"/>
<path fill-rule="evenodd" clip-rule="evenodd" d="M12 14.5H17V15.75H12V14.5ZM12 17H17V18.25H12V17ZM12 12H13.25V13.25H12V12Z" fill="#4EAC6D"/>
</g>
</svg>
